<svg width="266" height="55" viewBox="0 0 266 55" fill="none" xmlns="http://www.w3.org/2000/svg">
  <g clip-path="url(#clip0_445_50563)">
    <path d="M53.9491 8.42438L14.6697 22.5449C12.701 23.1193 11.3324 24.9143 11.3084 26.9726V49.0628C11.3084 52.6289 14.8378 55.1897 18.3432 54.1606L57.6225 40.04C59.5913 39.4656 60.9598 37.6707 60.9838 35.6124V13.5221C60.9838 9.93217 57.4545 7.37132 53.9491 8.42438ZM35.822 41.6436C30.5399 41.6436 26.2423 37.4553 26.2423 32.2857C26.2423 27.1161 30.5399 22.9279 35.822 22.9279C41.1041 22.9279 45.4018 27.1161 45.4018 32.2857C45.4018 37.4553 41.1281 41.6436 35.822 41.6436Z" fill="#05C4A0"/>
    <path d="M46.3141 31.855L7.03475 45.9755C3.52938 47.0286 0 44.4677 0 40.8777V18.7875C0.0240094 16.7292 1.36853 14.9342 3.36131 14.3598L42.6407 0.239297C46.146 -0.789827 49.6754 1.77102 49.6754 5.33705V27.4513C49.6754 29.4856 48.3069 31.2806 46.3141 31.855Z" fill="white"/>
    <path d="M68.3547 17.2077V13.3545H88.6907V17.2077H80.8156V38.7715H76.2298V17.2077H68.3547Z" fill="white"/>
    <path d="M89.0268 38.7716V19.6969H93.3965V22.88H93.5886C93.9487 21.779 94.5249 20.9174 95.3893 20.3191C96.2536 19.7208 97.214 19.4336 98.3184 19.4336C98.5585 19.4336 98.8466 19.4336 99.1588 19.4575C99.4709 19.4815 99.735 19.5054 99.9271 19.5533V23.6937C99.735 23.6219 99.4469 23.574 99.0147 23.5022C98.5825 23.4304 98.1984 23.4304 97.8142 23.4304C96.5657 23.4304 95.5574 23.8134 94.741 24.5792C93.9247 25.3451 93.5166 26.3503 93.5166 27.5469V38.7716H89.0268Z" fill="white"/>
    <path d="M106.722 39.154C104.897 39.154 103.384 38.6753 102.16 37.6941C100.935 36.7128 100.335 35.3007 100.335 33.434C100.335 31.998 100.671 30.8971 101.368 30.1073C102.064 29.3175 102.952 28.7431 104.081 28.3841C105.185 28.0251 106.362 27.7857 107.586 27.6421C109.267 27.4507 110.491 27.2831 111.211 27.1396C111.956 26.972 112.316 26.5891 112.316 25.9429V25.8711C112.316 24.9377 112.028 24.2197 111.476 23.6932C110.923 23.1906 110.107 22.9273 109.075 22.9273C107.97 22.9273 107.106 23.1667 106.458 23.6453C105.809 24.124 105.377 24.6984 105.161 25.3446L100.959 24.7462C101.464 22.9991 102.424 21.7067 103.889 20.8212C105.329 19.9357 107.058 19.5049 109.075 19.5049C109.987 19.5049 110.899 19.6006 111.812 19.816C112.724 20.0314 113.564 20.3904 114.309 20.893C115.077 21.3956 115.677 22.0657 116.133 22.9034C116.59 23.741 116.83 24.7941 116.83 26.0626V38.7711H112.508V36.1384H112.364C111.956 36.9521 111.284 37.6462 110.371 38.2445C109.459 38.8428 108.21 39.154 106.722 39.154ZM107.898 35.8512C109.267 35.8512 110.347 35.4683 111.139 34.6785C111.932 33.9126 112.34 32.9792 112.34 31.9262V29.6765C112.148 29.844 111.788 29.9637 111.284 30.0833C110.779 30.203 110.227 30.2987 109.651 30.3945C109.075 30.4902 108.594 30.5381 108.186 30.6099C107.178 30.7535 106.338 31.0167 105.665 31.4236C104.993 31.8304 104.657 32.4766 104.657 33.3382C104.657 34.1759 104.969 34.7982 105.569 35.205C106.17 35.6358 106.938 35.8512 107.898 35.8512Z" fill="white"/>
    <path d="M127.082 39.1065C125.569 39.1065 124.225 38.7236 123.048 37.9577C121.872 37.1919 120.935 36.067 120.239 34.6071C119.543 33.1472 119.207 31.3761 119.207 29.27C119.207 27.1639 119.567 25.3689 120.263 23.909C120.959 22.4491 121.92 21.3482 123.096 20.6062C124.297 19.8643 125.617 19.4814 127.082 19.4814C128.21 19.4814 129.122 19.6728 129.843 20.0558C130.563 20.4387 131.139 20.8934 131.571 21.42C132.004 21.9465 132.316 22.4491 132.556 22.9038H132.748V13.3545H137.262V38.7715H132.82V35.7798H132.556C132.316 36.2346 131.98 36.7372 131.547 37.2398C131.115 37.7663 130.515 38.1971 129.795 38.5561C129.098 38.9151 128.186 39.1065 127.082 39.1065ZM128.33 35.4208C129.771 35.4208 130.875 34.8464 131.643 33.7216C132.412 32.5728 132.82 31.0889 132.82 29.2461C132.82 27.4032 132.436 25.9194 131.667 24.8185C130.899 23.7175 129.795 23.1671 128.33 23.1671C126.818 23.1671 125.689 23.7415 124.921 24.8903C124.153 26.0391 123.768 27.499 123.768 29.27C123.768 31.065 124.153 32.5249 124.921 33.6977C125.737 34.8225 126.866 35.4208 128.33 35.4208Z" fill="white"/>
    <path d="M149.17 39.1301C147.25 39.1301 145.593 38.7232 144.2 37.9334C142.808 37.1197 141.751 35.9948 140.983 34.5349C140.239 33.075 139.855 31.3518 139.855 29.3414C139.855 27.3789 140.239 25.6557 140.983 24.1719C141.727 22.688 142.784 21.5392 144.128 20.7016C145.473 19.8639 147.082 19.457 148.906 19.457C150.467 19.457 151.931 19.7921 153.252 20.4622C154.572 21.1323 155.653 22.1854 156.445 23.5975C157.237 25.0095 157.646 26.8524 157.646 29.0781V30.4663H144.32C144.344 32.0937 144.801 33.3622 145.689 34.2716C146.577 35.1811 147.754 35.6358 149.194 35.6358C150.155 35.6358 150.995 35.4204 151.715 35.0136C152.436 34.6067 152.94 33.9844 153.252 33.1946L157.454 33.6733C157.045 35.3247 156.133 36.665 154.668 37.6462C153.252 38.6275 151.403 39.1301 149.17 39.1301ZM144.368 27.4268H153.348C153.348 26.1344 152.94 25.0574 152.123 24.2197C151.331 23.3821 150.275 22.9513 148.978 22.9513C147.634 22.9513 146.553 23.3821 145.713 24.2676C144.897 25.1531 144.44 26.2062 144.368 27.4268Z" fill="white"/>
    <path d="M159.566 38.7715V13.3545H176.973V18.3326H165.737V23.55H175.869V28.552H165.737V38.7715H159.566Z" fill="#05C4A0"/>
    <path d="M189.818 30.538V19.6963H195.893V38.771H190.082V35.2289H189.89C189.458 36.4016 188.738 37.3111 187.729 38.0051C186.721 38.6992 185.497 39.0343 184.056 39.0343C182.735 39.0343 181.607 38.7471 180.623 38.1487C179.638 37.5504 178.87 36.7127 178.318 35.6358C177.766 34.5588 177.501 33.3142 177.477 31.8783V19.6963H183.576V30.6577C183.576 31.6868 183.864 32.5005 184.392 33.0988C184.92 33.6972 185.665 33.9844 186.601 33.9844C187.513 33.9844 188.258 33.6732 188.882 33.0749C189.506 32.5005 189.818 31.6389 189.818 30.538Z" fill="#05C4A0"/>
    <path d="M204.488 27.882V38.7716H198.39V19.6969H204.176V23.1911H204.392C204.824 22.0423 205.544 21.1089 206.553 20.4388C207.585 19.7687 208.786 19.4336 210.202 19.4336C211.547 19.4336 212.723 19.7208 213.708 20.3191C214.692 20.9174 215.46 21.7551 216.012 22.8321C216.565 23.9091 216.829 25.1536 216.829 26.5896V38.7716H210.73V27.8102C210.73 26.7571 210.466 25.9195 209.938 25.3211C209.386 24.7228 208.642 24.4356 207.681 24.4356C206.721 24.4356 205.953 24.7468 205.352 25.3451C204.8 25.9673 204.512 26.805 204.488 27.882Z" fill="#05C4A0"/>
    <path d="M226.264 39.0347C224.872 39.0347 223.575 38.6757 222.423 37.9338C221.271 37.1919 220.334 36.1149 219.662 34.655C218.966 33.219 218.629 31.4001 218.629 29.2222C218.629 26.9724 218.99 25.1296 219.71 23.6936C220.43 22.2576 221.367 21.1806 222.519 20.4866C223.671 19.7925 224.92 19.4335 226.264 19.4335C227.777 19.4335 228.954 19.7925 229.842 20.5344C230.706 21.2764 231.33 22.0662 231.667 22.9517H231.787V13.3545H237.885V38.7715H231.859V35.6602H231.667C231.282 36.5457 230.658 37.3116 229.77 38.0056C228.881 38.6997 227.705 39.0347 226.264 39.0347ZM228.377 34.296C229.482 34.296 230.346 33.8412 230.97 32.9079C231.595 31.9984 231.907 30.7539 231.907 29.1982C231.907 27.6426 231.595 26.422 230.97 25.5125C230.346 24.6031 229.482 24.1483 228.377 24.1483C227.249 24.1483 226.385 24.6031 225.784 25.5125C225.184 26.422 224.872 27.6426 224.872 29.1743C224.872 30.706 225.184 31.9505 225.784 32.86C226.385 33.8412 227.249 34.296 228.377 34.296Z" fill="#05C4A0"/>
    <path d="M240.334 38.7716V19.6969H246.24V23.1672H246.432C246.792 21.8987 247.345 20.9653 248.137 20.367C248.929 19.7447 249.842 19.4336 250.898 19.4336C251.474 19.4336 252.051 19.5054 252.603 19.649V24.9143C252.315 24.8185 251.93 24.7467 251.474 24.675C250.994 24.6271 250.586 24.5792 250.226 24.5792C249.145 24.5792 248.233 24.9382 247.513 25.6323C246.792 26.3263 246.432 27.2358 246.432 28.3846V38.7716H240.334Z" fill="#05C4A0"/>
    <path d="M253.731 38.7716V19.6969H259.638V23.1672H259.83C260.19 21.8987 260.742 20.9653 261.534 20.367C262.327 19.7447 263.239 19.4336 264.295 19.4336C264.872 19.4336 265.448 19.5054 266 19.649V24.9143C265.712 24.8185 265.328 24.7467 264.872 24.675C264.391 24.6271 263.983 24.5792 263.623 24.5792C262.543 24.5792 261.63 24.9382 260.91 25.6323C260.19 26.3263 259.83 27.2358 259.83 28.3846V38.7716H253.731Z" fill="#05C4A0"/>
  </g>
  <defs>
    <clipPath id="clip0_445_50563">
      <rect width="266" height="54.4" fill="white"/>
    </clipPath>
  </defs>
</svg>
